<?xml version="1.0" encoding="UTF-8"?>
      <mxfile host="codeviz.app" modified="2025-07-07T16:38:04.132Z" agent="CodeViz Exporter" version="14.6.5" type="device">
        <diagram id="codeviz-diagram" name="System Diagram">
          <mxGraphModel dx="1000" dy="1000" grid="1" gridSize="10" guides="1" tooltips="1" connect="1" arrows="1" fold="1" page="1" pageScale="1" pageWidth="1169" pageHeight="827" math="0" shadow="0">
            <root>
              <mxCell id="0"/>
              <mxCell id="1" parent="0"/>
              <mxCell id="subGraph0_5c193fed0967ac5fddaabf68c8db6c06_section_section-diagram-5c193fed0967ac5fddaabf68c8db6c06-Low-Level-API-Details-(Examples)" value="" style="html=1;whiteSpace=wrap;container=1;fillColor=#dae8fc;strokeColor=#6c8ebf;dashed=1;fillOpacity=20;strokeWidth=2;containerType=none;recursiveResize=0;movable=1;resizable=1;autosize=0;dropTarget=0" vertex="1" parent="section-diagram-5c193fed0967ac5fddaabf68c8db6c06-Low-Level-API-Details-(Examples)-wrapper">
                <mxGeometry x="154" y="715" width="290" height="540" as="geometry"/>
              </mxCell>
              <mxCell id="subGraph0_5c193fed0967ac5fddaabf68c8db6c06_section_section-diagram-5c193fed0967ac5fddaabf68c8db6c06-Low-Level-API-Details-(Examples)_label" value="Authentication API Details" style="edgeLabel;html=1;align=center;verticalAlign=middle;resizable=0;labelBackgroundColor=white;spacing=5" vertex="1" parent="section-diagram-5c193fed0967ac5fddaabf68c8db6c06-Low-Level-API-Details-(Examples)-wrapper">
                <mxGeometry x="162" y="723" width="214" height="24" as="geometry"/>
              </mxCell>
<mxCell id="subGraph1_5c193fed0967ac5fddaabf68c8db6c06_section_section-diagram-5c193fed0967ac5fddaabf68c8db6c06-Low-Level-API-Details-(Examples)" value="" style="html=1;whiteSpace=wrap;container=1;fillColor=#dae8fc;strokeColor=#6c8ebf;dashed=1;fillOpacity=20;strokeWidth=2;containerType=none;recursiveResize=0;movable=1;resizable=1;autosize=0;dropTarget=0" vertex="1" parent="section-diagram-5c193fed0967ac5fddaabf68c8db6c06-Low-Level-API-Details-(Examples)-wrapper">
                <mxGeometry x="63" y="105" width="290" height="540" as="geometry"/>
              </mxCell>
              <mxCell id="subGraph1_5c193fed0967ac5fddaabf68c8db6c06_section_section-diagram-5c193fed0967ac5fddaabf68c8db6c06-Low-Level-API-Details-(Examples)_label" value="Accounts API Details" style="edgeLabel;html=1;align=center;verticalAlign=middle;resizable=0;labelBackgroundColor=white;spacing=5" vertex="1" parent="section-diagram-5c193fed0967ac5fddaabf68c8db6c06-Low-Level-API-Details-(Examples)-wrapper">
                <mxGeometry x="71" y="113" width="214" height="24" as="geometry"/>
              </mxCell>
<mxCell id="section-diagram-5c193fed0967ac5fddaabf68c8db6c06-High-Level-Architecture-wrapper" value="" style="html=1;whiteSpace=wrap;container=1;fillColor=#dae8fc;strokeColor=#6c8ebf;dashed=1;fillOpacity=20;strokeWidth=2;containerType=none;recursiveResize=0;movable=1;resizable=1;autosize=0;dropTarget=0" vertex="1" parent="search-results-group-5c193fed0967ac5fddaabf68c8db6c06">
                <mxGeometry x="514" y="450" width="240" height="540" as="geometry"/>
              </mxCell>
              <mxCell id="section-diagram-5c193fed0967ac5fddaabf68c8db6c06-High-Level-Architecture-wrapper_label" value="High-Level Architecture" style="edgeLabel;html=1;align=center;verticalAlign=middle;resizable=0;labelBackgroundColor=white;spacing=5" vertex="1" parent="search-results-group-5c193fed0967ac5fddaabf68c8db6c06">
                <mxGeometry x="522" y="458" width="164" height="24" as="geometry"/>
              </mxCell>
<mxCell id="section-diagram-5c193fed0967ac5fddaabf68c8db6c06-Mid-Level-API-Structure-wrapper" value="" style="html=1;whiteSpace=wrap;container=1;fillColor=#dae8fc;strokeColor=#6c8ebf;dashed=1;fillOpacity=20;strokeWidth=2;containerType=none;recursiveResize=0;movable=1;resizable=1;autosize=0;dropTarget=0" vertex="1" parent="search-results-group-5c193fed0967ac5fddaabf68c8db6c06">
                <mxGeometry x="744" y="440" width="260" height="540" as="geometry"/>
              </mxCell>
              <mxCell id="section-diagram-5c193fed0967ac5fddaabf68c8db6c06-Mid-Level-API-Structure-wrapper_label" value="Mid-Level API Structure" style="edgeLabel;html=1;align=center;verticalAlign=middle;resizable=0;labelBackgroundColor=white;spacing=5" vertex="1" parent="search-results-group-5c193fed0967ac5fddaabf68c8db6c06">
                <mxGeometry x="752" y="448" width="184" height="24" as="geometry"/>
              </mxCell>
<mxCell id="section-diagram-5c193fed0967ac5fddaabf68c8db6c06-Low-Level-API-Details-(Examples)-wrapper" value="" style="html=1;whiteSpace=wrap;container=1;fillColor=#dae8fc;strokeColor=#6c8ebf;dashed=1;fillOpacity=20;strokeWidth=2;containerType=none;recursiveResize=0;movable=1;resizable=1;autosize=0;dropTarget=0" vertex="1" parent="search-results-group-5c193fed0967ac5fddaabf68c8db6c06">
                <mxGeometry x="73" y="495" width="441" height="1250" as="geometry"/>
              </mxCell>
              <mxCell id="section-diagram-5c193fed0967ac5fddaabf68c8db6c06-Low-Level-API-Details-(Examples)-wrapper_label" value="Low-Level API Details (Examples)" style="edgeLabel;html=1;align=center;verticalAlign=middle;resizable=0;labelBackgroundColor=white;spacing=5" vertex="1" parent="search-results-group-5c193fed0967ac5fddaabf68c8db6c06">
                <mxGeometry x="81" y="503" width="365" height="24" as="geometry"/>
              </mxCell>
              <mxCell id="search-results-group-5c193fed0967ac5fddaabf68c8db6c06" value="Search Results" style="rounded=1;whiteSpace=wrap;html=1;fillColor=#f5f5f5" vertex="1" parent="1">
                    <mxGeometry x="12" y="12" width="1008" height="1760" as="geometry"/>
                  </mxCell>
<mxCell id="terminal-5c193fed0967ac5fddaabf68c8db6c06" value="Terminal" style="rounded=1;whiteSpace=wrap;html=1;fillColor=#f5f5f5" vertex="1" parent="1">
                    <mxGeometry x="456" y="1972" width="120" height="60" as="geometry"/>
                  </mxCell>
<mxCell id="search-result-5c193fed0967ac5fddaabf68c8db6c06" value="" style="rounded=1;whiteSpace=wrap;html=1;fillColor=#f5f5f5" vertex="1" parent="search-results-group-5c193fed0967ac5fddaabf68c8db6c06">
                    <mxGeometry x="227" y="80" width="120" height="60" as="geometry"/>
                  </mxCell>
<mxCell id="apiEndpoints_5c193fed0967ac5fddaabf68c8db6c06_section_section-diagram-5c193fed0967ac5fddaabf68c8db6c06-High-Level-Architecture" value="API Endpoints&lt;br&gt;Communication Layer" style="rounded=1;whiteSpace=wrap;html=1;fillColor=#f5f5f5" vertex="1" parent="section-diagram-5c193fed0967ac5fddaabf68c8db6c06-High-Level-Architecture-wrapper">
                    <mxGeometry x="40" y="280" width="120" height="60" as="geometry"/>
                  </mxCell>
<mxCell id="drfBackend_5c193fed0967ac5fddaabf68c8db6c06_section_section-diagram-5c193fed0967ac5fddaabf68c8db6c06-High-Level-Architecture" value="Django REST Framework&lt;br&gt;Backend" style="rounded=1;whiteSpace=wrap;html=1;fillColor=#f5f5f5" vertex="1" parent="section-diagram-5c193fed0967ac5fddaabf68c8db6c06-High-Level-Architecture-wrapper">
                    <mxGeometry x="40" y="440" width="120" height="60" as="geometry"/>
                  </mxCell>
<mxCell id="frontend_5c193fed0967ac5fddaabf68c8db6c06_section_section-diagram-5c193fed0967ac5fddaabf68c8db6c06-High-Level-Architecture" value="Frontend&lt;br&gt;Client Application" style="rounded=1;whiteSpace=wrap;html=1;fillColor=#f5f5f5" vertex="1" parent="section-diagram-5c193fed0967ac5fddaabf68c8db6c06-High-Level-Architecture-wrapper">
                    <mxGeometry x="40" y="120" width="120" height="60" as="geometry"/>
                  </mxCell>
<mxCell id="accountsApi_5c193fed0967ac5fddaabf68c8db6c06_section_section-diagram-5c193fed0967ac5fddaabf68c8db6c06-Mid-Level-API-Structure" value="Accounts API&lt;br&gt;DRF App" style="rounded=1;whiteSpace=wrap;html=1;fillColor=#f5f5f5" vertex="1" parent="section-diagram-5c193fed0967ac5fddaabf68c8db6c06-Mid-Level-API-Structure-wrapper">
                    <mxGeometry x="60" y="440" width="120" height="60" as="geometry"/>
                  </mxCell>
<mxCell id="authApi_5c193fed0967ac5fddaabf68c8db6c06_section_section-diagram-5c193fed0967ac5fddaabf68c8db6c06-Mid-Level-API-Structure" value="Authentication API&lt;br&gt;DRF App" style="rounded=1;whiteSpace=wrap;html=1;fillColor=#f5f5f5" vertex="1" parent="section-diagram-5c193fed0967ac5fddaabf68c8db6c06-Mid-Level-API-Structure-wrapper">
                    <mxGeometry x="40" y="280" width="120" height="60" as="geometry"/>
                  </mxCell>
<mxCell id="drfBackend_5c193fed0967ac5fddaabf68c8db6c06_section_section-diagram-5c193fed0967ac5fddaabf68c8db6c06-Mid-Level-API-Structure" value="Django REST Framework&lt;br&gt;Backend" style="rounded=1;whiteSpace=wrap;html=1;fillColor=#f5f5f5" vertex="1" parent="section-diagram-5c193fed0967ac5fddaabf68c8db6c06-Mid-Level-API-Structure-wrapper">
                    <mxGeometry x="60" y="120" width="120" height="60" as="geometry"/>
                  </mxCell>
<mxCell id="accountsSerializers_5c193fed0967ac5fddaabf68c8db6c06_section_section-diagram-5c193fed0967ac5fddaabf68c8db6c06-Low-Level-API-Details-(Examples)" value="Serializers Definition&lt;br&gt;DRF Serializers" style="rounded=1;whiteSpace=wrap;html=1;fillColor=#f5f5f5" vertex="1" parent="subGraph1_5c193fed0967ac5fddaabf68c8db6c06_section_section-diagram-5c193fed0967ac5fddaabf68c8db6c06-Low-Level-API-Details-(Examples)">
                    <mxGeometry x="40" y="440" width="120" height="60" as="geometry"/>
                  </mxCell>
<mxCell id="accountsUrls_5c193fed0967ac5fddaabf68c8db6c06_section_section-diagram-5c193fed0967ac5fddaabf68c8db6c06-Low-Level-API-Details-(Examples)" value="URL Configuration&lt;br&gt;Django URLs" style="rounded=1;whiteSpace=wrap;html=1;fillColor=#f5f5f5" vertex="1" parent="subGraph1_5c193fed0967ac5fddaabf68c8db6c06_section_section-diagram-5c193fed0967ac5fddaabf68c8db6c06-Low-Level-API-Details-(Examples)">
                    <mxGeometry x="90" y="120" width="120" height="60" as="geometry"/>
                  </mxCell>
<mxCell id="accountsViews_5c193fed0967ac5fddaabf68c8db6c06_section_section-diagram-5c193fed0967ac5fddaabf68c8db6c06-Low-Level-API-Details-(Examples)" value="Views Implementation&lt;br&gt;DRF Views" style="rounded=1;whiteSpace=wrap;html=1;fillColor=#f5f5f5" vertex="1" parent="subGraph1_5c193fed0967ac5fddaabf68c8db6c06_section_section-diagram-5c193fed0967ac5fddaabf68c8db6c06-Low-Level-API-Details-(Examples)">
                    <mxGeometry x="90" y="280" width="120" height="60" as="geometry"/>
                  </mxCell>
<mxCell id="authSerializers_5c193fed0967ac5fddaabf68c8db6c06_section_section-diagram-5c193fed0967ac5fddaabf68c8db6c06-Low-Level-API-Details-(Examples)" value="Serializers Definition&lt;br&gt;DRF Serializers" style="rounded=1;whiteSpace=wrap;html=1;fillColor=#f5f5f5" vertex="1" parent="subGraph0_5c193fed0967ac5fddaabf68c8db6c06_section_section-diagram-5c193fed0967ac5fddaabf68c8db6c06-Low-Level-API-Details-(Examples)">
                    <mxGeometry x="40" y="440" width="120" height="60" as="geometry"/>
                  </mxCell>
<mxCell id="authUrls_5c193fed0967ac5fddaabf68c8db6c06_section_section-diagram-5c193fed0967ac5fddaabf68c8db6c06-Low-Level-API-Details-(Examples)" value="URL Configuration&lt;br&gt;Django URLs" style="rounded=1;whiteSpace=wrap;html=1;fillColor=#f5f5f5" vertex="1" parent="subGraph0_5c193fed0967ac5fddaabf68c8db6c06_section_section-diagram-5c193fed0967ac5fddaabf68c8db6c06-Low-Level-API-Details-(Examples)">
                    <mxGeometry x="90" y="120" width="120" height="60" as="geometry"/>
                  </mxCell>
<mxCell id="authViews_5c193fed0967ac5fddaabf68c8db6c06_section_section-diagram-5c193fed0967ac5fddaabf68c8db6c06-Low-Level-API-Details-(Examples)" value="Views Implementation&lt;br&gt;DRF Views" style="rounded=1;whiteSpace=wrap;html=1;fillColor=#f5f5f5" vertex="1" parent="subGraph0_5c193fed0967ac5fddaabf68c8db6c06_section_section-diagram-5c193fed0967ac5fddaabf68c8db6c06-Low-Level-API-Details-(Examples)">
                    <mxGeometry x="90" y="280" width="120" height="60" as="geometry"/>
                  </mxCell>
<mxCell id="report-section-5c193fed0967ac5fddaabf68c8db6c06-0" value="" style="rounded=1;whiteSpace=wrap;html=1;fillColor=#f5f5f5" vertex="1" parent="search-results-group-5c193fed0967ac5fddaabf68c8db6c06">
                    <mxGeometry x="227" y="190" width="120" height="60" as="geometry"/>
                  </mxCell>
<mxCell id="report-section-5c193fed0967ac5fddaabf68c8db6c06-1" value="" style="rounded=1;whiteSpace=wrap;html=1;fillColor=#f5f5f5" vertex="1" parent="search-results-group-5c193fed0967ac5fddaabf68c8db6c06">
                    <mxGeometry x="544" y="280" width="120" height="60" as="geometry"/>
                  </mxCell>
<mxCell id="report-section-5c193fed0967ac5fddaabf68c8db6c06-2" value="" style="rounded=1;whiteSpace=wrap;html=1;fillColor=#f5f5f5" vertex="1" parent="search-results-group-5c193fed0967ac5fddaabf68c8db6c06">
                    <mxGeometry x="791" y="270" width="120" height="60" as="geometry"/>
                  </mxCell>
<mxCell id="report-section-5c193fed0967ac5fddaabf68c8db6c06-5" value="" style="rounded=1;whiteSpace=wrap;html=1;fillColor=#f5f5f5" vertex="1" parent="search-results-group-5c193fed0967ac5fddaabf68c8db6c06">
                    <mxGeometry x="197" y="300" width="120" height="60" as="geometry"/>
                  </mxCell>
              <mxCell id="edge-edge-search-to-terminal-5c193fed0967ac5fddaabf68c8db6c06" style="edgeStyle=orthogonalEdgeStyle;rounded=1;orthogonalLoop=1;jettySize=auto;html=1;strokeColor=#808080;strokeWidth=2;jumpStyle=arc;jumpSize=10;spacing=15;labelBackgroundColor=white;labelBorderColor=none" edge="1" parent="1" source="search-results-group-5c193fed0967ac5fddaabf68c8db6c06" target="terminal-5c193fed0967ac5fddaabf68c8db6c06">
                  <mxGeometry relative="1" as="geometry"/>
                </mxCell>
                <mxCell id="edge-edge-search-to-terminal-5c193fed0967ac5fddaabf68c8db6c06_label" value="Provides context to" style="edgeLabel;html=1;align=center;verticalAlign=middle;resizable=0;points=[];" vertex="1" connectable="0" parent="edge-edge-search-to-terminal-5c193fed0967ac5fddaabf68c8db6c06">
                  <mxGeometry x="-0.2" y="10" relative="1" as="geometry">
                    <mxPoint as="offset"/>
                  </mxGeometry>
                </mxCell>
<mxCell id="edge-L_frontend_apiEndpoints_0_5c193fed0967ac5fddaabf68c8db6c06_section_section-diagram-5c193fed0967ac5fddaabf68c8db6c06-High-Level-Architecture" style="edgeStyle=orthogonalEdgeStyle;rounded=1;orthogonalLoop=1;jettySize=auto;html=1;strokeColor=#808080;strokeWidth=2;jumpStyle=arc;jumpSize=10;spacing=15;labelBackgroundColor=white;labelBorderColor=none" edge="1" parent="1" source="frontend_5c193fed0967ac5fddaabf68c8db6c06_section_section-diagram-5c193fed0967ac5fddaabf68c8db6c06-High-Level-Architecture" target="apiEndpoints_5c193fed0967ac5fddaabf68c8db6c06_section_section-diagram-5c193fed0967ac5fddaabf68c8db6c06-High-Level-Architecture">
                  <mxGeometry relative="1" as="geometry"/>
                </mxCell>
                <mxCell id="edge-L_frontend_apiEndpoints_0_5c193fed0967ac5fddaabf68c8db6c06_section_section-diagram-5c193fed0967ac5fddaabf68c8db6c06-High-Level-Architecture_label" value="communicates via" style="edgeLabel;html=1;align=center;verticalAlign=middle;resizable=0;points=[];" vertex="1" connectable="0" parent="edge-L_frontend_apiEndpoints_0_5c193fed0967ac5fddaabf68c8db6c06_section_section-diagram-5c193fed0967ac5fddaabf68c8db6c06-High-Level-Architecture">
                  <mxGeometry x="-0.2" y="10" relative="1" as="geometry">
                    <mxPoint as="offset"/>
                  </mxGeometry>
                </mxCell>
<mxCell id="edge-L_apiEndpoints_drfBackend_1_5c193fed0967ac5fddaabf68c8db6c06_section_section-diagram-5c193fed0967ac5fddaabf68c8db6c06-High-Level-Architecture" style="edgeStyle=orthogonalEdgeStyle;rounded=1;orthogonalLoop=1;jettySize=auto;html=1;strokeColor=#808080;strokeWidth=2;jumpStyle=arc;jumpSize=10;spacing=15;labelBackgroundColor=white;labelBorderColor=none" edge="1" parent="1" source="apiEndpoints_5c193fed0967ac5fddaabf68c8db6c06_section_section-diagram-5c193fed0967ac5fddaabf68c8db6c06-High-Level-Architecture" target="drfBackend_5c193fed0967ac5fddaabf68c8db6c06_section_section-diagram-5c193fed0967ac5fddaabf68c8db6c06-High-Level-Architecture">
                  <mxGeometry relative="1" as="geometry"/>
                </mxCell>
                <mxCell id="edge-L_apiEndpoints_drfBackend_1_5c193fed0967ac5fddaabf68c8db6c06_section_section-diagram-5c193fed0967ac5fddaabf68c8db6c06-High-Level-Architecture_label" value="served by" style="edgeLabel;html=1;align=center;verticalAlign=middle;resizable=0;points=[];" vertex="1" connectable="0" parent="edge-L_apiEndpoints_drfBackend_1_5c193fed0967ac5fddaabf68c8db6c06_section_section-diagram-5c193fed0967ac5fddaabf68c8db6c06-High-Level-Architecture">
                  <mxGeometry x="-0.2" y="10" relative="1" as="geometry">
                    <mxPoint as="offset"/>
                  </mxGeometry>
                </mxCell>
<mxCell id="edge-report-section-5c193fed0967ac5fddaabf68c8db6c06-1-to-section-diagram-5c193fed0967ac5fddaabf68c8db6c06-High-Level-Architecture-wrapper" style="edgeStyle=orthogonalEdgeStyle;rounded=1;orthogonalLoop=1;jettySize=auto;html=1;strokeColor=#808080;strokeWidth=2;jumpStyle=arc;jumpSize=10;spacing=15;labelBackgroundColor=white;labelBorderColor=none" edge="1" parent="1" source="report-section-5c193fed0967ac5fddaabf68c8db6c06-1" target="section-diagram-5c193fed0967ac5fddaabf68c8db6c06-High-Level-Architecture-wrapper">
                  <mxGeometry relative="1" as="geometry"/>
                </mxCell>
                <mxCell id="edge-report-section-5c193fed0967ac5fddaabf68c8db6c06-1-to-section-diagram-5c193fed0967ac5fddaabf68c8db6c06-High-Level-Architecture-wrapper_label" value="Diagram" style="edgeLabel;html=1;align=center;verticalAlign=middle;resizable=0;points=[];" vertex="1" connectable="0" parent="edge-report-section-5c193fed0967ac5fddaabf68c8db6c06-1-to-section-diagram-5c193fed0967ac5fddaabf68c8db6c06-High-Level-Architecture-wrapper">
                  <mxGeometry x="-0.2" y="10" relative="1" as="geometry">
                    <mxPoint as="offset"/>
                  </mxGeometry>
                </mxCell>
<mxCell id="edge-L_drfBackend_authApi_0_5c193fed0967ac5fddaabf68c8db6c06_section_section-diagram-5c193fed0967ac5fddaabf68c8db6c06-Mid-Level-API-Structure" style="edgeStyle=orthogonalEdgeStyle;rounded=1;orthogonalLoop=1;jettySize=auto;html=1;strokeColor=#808080;strokeWidth=2;jumpStyle=arc;jumpSize=10;spacing=15;labelBackgroundColor=white;labelBorderColor=none" edge="1" parent="1" source="drfBackend_5c193fed0967ac5fddaabf68c8db6c06_section_section-diagram-5c193fed0967ac5fddaabf68c8db6c06-Mid-Level-API-Structure" target="authApi_5c193fed0967ac5fddaabf68c8db6c06_section_section-diagram-5c193fed0967ac5fddaabf68c8db6c06-Mid-Level-API-Structure">
                  <mxGeometry relative="1" as="geometry"/>
                </mxCell>
                <mxCell id="edge-L_drfBackend_authApi_0_5c193fed0967ac5fddaabf68c8db6c06_section_section-diagram-5c193fed0967ac5fddaabf68c8db6c06-Mid-Level-API-Structure_label" value="contains" style="edgeLabel;html=1;align=center;verticalAlign=middle;resizable=0;points=[];" vertex="1" connectable="0" parent="edge-L_drfBackend_authApi_0_5c193fed0967ac5fddaabf68c8db6c06_section_section-diagram-5c193fed0967ac5fddaabf68c8db6c06-Mid-Level-API-Structure">
                  <mxGeometry x="-0.2" y="10" relative="1" as="geometry">
                    <mxPoint as="offset"/>
                  </mxGeometry>
                </mxCell>
<mxCell id="edge-L_drfBackend_accountsApi_1_5c193fed0967ac5fddaabf68c8db6c06_section_section-diagram-5c193fed0967ac5fddaabf68c8db6c06-Mid-Level-API-Structure" style="edgeStyle=orthogonalEdgeStyle;rounded=1;orthogonalLoop=1;jettySize=auto;html=1;strokeColor=#808080;strokeWidth=2;jumpStyle=arc;jumpSize=10;spacing=15;labelBackgroundColor=white;labelBorderColor=none" edge="1" parent="1" source="drfBackend_5c193fed0967ac5fddaabf68c8db6c06_section_section-diagram-5c193fed0967ac5fddaabf68c8db6c06-Mid-Level-API-Structure" target="accountsApi_5c193fed0967ac5fddaabf68c8db6c06_section_section-diagram-5c193fed0967ac5fddaabf68c8db6c06-Mid-Level-API-Structure">
                  <mxGeometry relative="1" as="geometry"/>
                </mxCell>
                <mxCell id="edge-L_drfBackend_accountsApi_1_5c193fed0967ac5fddaabf68c8db6c06_section_section-diagram-5c193fed0967ac5fddaabf68c8db6c06-Mid-Level-API-Structure_label" value="contains" style="edgeLabel;html=1;align=center;verticalAlign=middle;resizable=0;points=[];" vertex="1" connectable="0" parent="edge-L_drfBackend_accountsApi_1_5c193fed0967ac5fddaabf68c8db6c06_section_section-diagram-5c193fed0967ac5fddaabf68c8db6c06-Mid-Level-API-Structure">
                  <mxGeometry x="-0.2" y="10" relative="1" as="geometry">
                    <mxPoint as="offset"/>
                  </mxGeometry>
                </mxCell>
<mxCell id="edge-L_authApi_accountsApi_2_5c193fed0967ac5fddaabf68c8db6c06_section_section-diagram-5c193fed0967ac5fddaabf68c8db6c06-Mid-Level-API-Structure" style="edgeStyle=orthogonalEdgeStyle;rounded=1;orthogonalLoop=1;jettySize=auto;html=1;strokeColor=#808080;strokeWidth=2;jumpStyle=arc;jumpSize=10;spacing=15;labelBackgroundColor=white;labelBorderColor=none" edge="1" parent="1" source="authApi_5c193fed0967ac5fddaabf68c8db6c06_section_section-diagram-5c193fed0967ac5fddaabf68c8db6c06-Mid-Level-API-Structure" target="accountsApi_5c193fed0967ac5fddaabf68c8db6c06_section_section-diagram-5c193fed0967ac5fddaabf68c8db6c06-Mid-Level-API-Structure">
                  <mxGeometry relative="1" as="geometry"/>
                </mxCell>
                <mxCell id="edge-L_authApi_accountsApi_2_5c193fed0967ac5fddaabf68c8db6c06_section_section-diagram-5c193fed0967ac5fddaabf68c8db6c06-Mid-Level-API-Structure_label" value="provides user data to" style="edgeLabel;html=1;align=center;verticalAlign=middle;resizable=0;points=[];" vertex="1" connectable="0" parent="edge-L_authApi_accountsApi_2_5c193fed0967ac5fddaabf68c8db6c06_section_section-diagram-5c193fed0967ac5fddaabf68c8db6c06-Mid-Level-API-Structure">
                  <mxGeometry x="-0.2" y="10" relative="1" as="geometry">
                    <mxPoint as="offset"/>
                  </mxGeometry>
                </mxCell>
<mxCell id="edge-L_accountsApi_authApi_3_5c193fed0967ac5fddaabf68c8db6c06_section_section-diagram-5c193fed0967ac5fddaabf68c8db6c06-Mid-Level-API-Structure" style="edgeStyle=orthogonalEdgeStyle;rounded=1;orthogonalLoop=1;jettySize=auto;html=1;strokeColor=#808080;strokeWidth=2;jumpStyle=arc;jumpSize=10;spacing=15;labelBackgroundColor=white;labelBorderColor=none" edge="1" parent="1" source="accountsApi_5c193fed0967ac5fddaabf68c8db6c06_section_section-diagram-5c193fed0967ac5fddaabf68c8db6c06-Mid-Level-API-Structure" target="authApi_5c193fed0967ac5fddaabf68c8db6c06_section_section-diagram-5c193fed0967ac5fddaabf68c8db6c06-Mid-Level-API-Structure">
                  <mxGeometry relative="1" as="geometry"/>
                </mxCell>
                <mxCell id="edge-L_accountsApi_authApi_3_5c193fed0967ac5fddaabf68c8db6c06_section_section-diagram-5c193fed0967ac5fddaabf68c8db6c06-Mid-Level-API-Structure_label" value="consumes user data from" style="edgeLabel;html=1;align=center;verticalAlign=middle;resizable=0;points=[];" vertex="1" connectable="0" parent="edge-L_accountsApi_authApi_3_5c193fed0967ac5fddaabf68c8db6c06_section_section-diagram-5c193fed0967ac5fddaabf68c8db6c06-Mid-Level-API-Structure">
                  <mxGeometry x="-0.2" y="10" relative="1" as="geometry">
                    <mxPoint as="offset"/>
                  </mxGeometry>
                </mxCell>
<mxCell id="edge-report-section-5c193fed0967ac5fddaabf68c8db6c06-2-to-section-diagram-5c193fed0967ac5fddaabf68c8db6c06-Mid-Level-API-Structure-wrapper" style="edgeStyle=orthogonalEdgeStyle;rounded=1;orthogonalLoop=1;jettySize=auto;html=1;strokeColor=#808080;strokeWidth=2;jumpStyle=arc;jumpSize=10;spacing=15;labelBackgroundColor=white;labelBorderColor=none" edge="1" parent="1" source="report-section-5c193fed0967ac5fddaabf68c8db6c06-2" target="section-diagram-5c193fed0967ac5fddaabf68c8db6c06-Mid-Level-API-Structure-wrapper">
                  <mxGeometry relative="1" as="geometry"/>
                </mxCell>
                <mxCell id="edge-report-section-5c193fed0967ac5fddaabf68c8db6c06-2-to-section-diagram-5c193fed0967ac5fddaabf68c8db6c06-Mid-Level-API-Structure-wrapper_label" value="Diagram" style="edgeLabel;html=1;align=center;verticalAlign=middle;resizable=0;points=[];" vertex="1" connectable="0" parent="edge-report-section-5c193fed0967ac5fddaabf68c8db6c06-2-to-section-diagram-5c193fed0967ac5fddaabf68c8db6c06-Mid-Level-API-Structure-wrapper">
                  <mxGeometry x="-0.2" y="10" relative="1" as="geometry">
                    <mxPoint as="offset"/>
                  </mxGeometry>
                </mxCell>
<mxCell id="edge-L_authUrls_authViews_0_5c193fed0967ac5fddaabf68c8db6c06_section_section-diagram-5c193fed0967ac5fddaabf68c8db6c06-Low-Level-API-Details-(Examples)" style="edgeStyle=orthogonalEdgeStyle;rounded=1;orthogonalLoop=1;jettySize=auto;html=1;strokeColor=#808080;strokeWidth=2;jumpStyle=arc;jumpSize=10;spacing=15;labelBackgroundColor=white;labelBorderColor=none" edge="1" parent="1" source="authUrls_5c193fed0967ac5fddaabf68c8db6c06_section_section-diagram-5c193fed0967ac5fddaabf68c8db6c06-Low-Level-API-Details-(Examples)" target="authViews_5c193fed0967ac5fddaabf68c8db6c06_section_section-diagram-5c193fed0967ac5fddaabf68c8db6c06-Low-Level-API-Details-(Examples)">
                  <mxGeometry relative="1" as="geometry"/>
                </mxCell>
                <mxCell id="edge-L_authUrls_authViews_0_5c193fed0967ac5fddaabf68c8db6c06_section_section-diagram-5c193fed0967ac5fddaabf68c8db6c06-Low-Level-API-Details-(Examples)_label" value="maps to" style="edgeLabel;html=1;align=center;verticalAlign=middle;resizable=0;points=[];" vertex="1" connectable="0" parent="edge-L_authUrls_authViews_0_5c193fed0967ac5fddaabf68c8db6c06_section_section-diagram-5c193fed0967ac5fddaabf68c8db6c06-Low-Level-API-Details-(Examples)">
                  <mxGeometry x="-0.2" y="10" relative="1" as="geometry">
                    <mxPoint as="offset"/>
                  </mxGeometry>
                </mxCell>
<mxCell id="edge-L_authViews_authSerializers_1_5c193fed0967ac5fddaabf68c8db6c06_section_section-diagram-5c193fed0967ac5fddaabf68c8db6c06-Low-Level-API-Details-(Examples)" style="edgeStyle=orthogonalEdgeStyle;rounded=1;orthogonalLoop=1;jettySize=auto;html=1;strokeColor=#808080;strokeWidth=2;jumpStyle=arc;jumpSize=10;spacing=15;labelBackgroundColor=white;labelBorderColor=none" edge="1" parent="1" source="authViews_5c193fed0967ac5fddaabf68c8db6c06_section_section-diagram-5c193fed0967ac5fddaabf68c8db6c06-Low-Level-API-Details-(Examples)" target="authSerializers_5c193fed0967ac5fddaabf68c8db6c06_section_section-diagram-5c193fed0967ac5fddaabf68c8db6c06-Low-Level-API-Details-(Examples)">
                  <mxGeometry relative="1" as="geometry"/>
                </mxCell>
                <mxCell id="edge-L_authViews_authSerializers_1_5c193fed0967ac5fddaabf68c8db6c06_section_section-diagram-5c193fed0967ac5fddaabf68c8db6c06-Low-Level-API-Details-(Examples)_label" value="uses" style="edgeLabel;html=1;align=center;verticalAlign=middle;resizable=0;points=[];" vertex="1" connectable="0" parent="edge-L_authViews_authSerializers_1_5c193fed0967ac5fddaabf68c8db6c06_section_section-diagram-5c193fed0967ac5fddaabf68c8db6c06-Low-Level-API-Details-(Examples)">
                  <mxGeometry x="-0.2" y="10" relative="1" as="geometry">
                    <mxPoint as="offset"/>
                  </mxGeometry>
                </mxCell>
<mxCell id="edge-L_accountsUrls_accountsViews_2_5c193fed0967ac5fddaabf68c8db6c06_section_section-diagram-5c193fed0967ac5fddaabf68c8db6c06-Low-Level-API-Details-(Examples)" style="edgeStyle=orthogonalEdgeStyle;rounded=1;orthogonalLoop=1;jettySize=auto;html=1;strokeColor=#808080;strokeWidth=2;jumpStyle=arc;jumpSize=10;spacing=15;labelBackgroundColor=white;labelBorderColor=none" edge="1" parent="1" source="accountsUrls_5c193fed0967ac5fddaabf68c8db6c06_section_section-diagram-5c193fed0967ac5fddaabf68c8db6c06-Low-Level-API-Details-(Examples)" target="accountsViews_5c193fed0967ac5fddaabf68c8db6c06_section_section-diagram-5c193fed0967ac5fddaabf68c8db6c06-Low-Level-API-Details-(Examples)">
                  <mxGeometry relative="1" as="geometry"/>
                </mxCell>
                <mxCell id="edge-L_accountsUrls_accountsViews_2_5c193fed0967ac5fddaabf68c8db6c06_section_section-diagram-5c193fed0967ac5fddaabf68c8db6c06-Low-Level-API-Details-(Examples)_label" value="maps to" style="edgeLabel;html=1;align=center;verticalAlign=middle;resizable=0;points=[];" vertex="1" connectable="0" parent="edge-L_accountsUrls_accountsViews_2_5c193fed0967ac5fddaabf68c8db6c06_section_section-diagram-5c193fed0967ac5fddaabf68c8db6c06-Low-Level-API-Details-(Examples)">
                  <mxGeometry x="-0.2" y="10" relative="1" as="geometry">
                    <mxPoint as="offset"/>
                  </mxGeometry>
                </mxCell>
<mxCell id="edge-L_accountsViews_accountsSerializers_3_5c193fed0967ac5fddaabf68c8db6c06_section_section-diagram-5c193fed0967ac5fddaabf68c8db6c06-Low-Level-API-Details-(Examples)" style="edgeStyle=orthogonalEdgeStyle;rounded=1;orthogonalLoop=1;jettySize=auto;html=1;strokeColor=#808080;strokeWidth=2;jumpStyle=arc;jumpSize=10;spacing=15;labelBackgroundColor=white;labelBorderColor=none" edge="1" parent="1" source="accountsViews_5c193fed0967ac5fddaabf68c8db6c06_section_section-diagram-5c193fed0967ac5fddaabf68c8db6c06-Low-Level-API-Details-(Examples)" target="accountsSerializers_5c193fed0967ac5fddaabf68c8db6c06_section_section-diagram-5c193fed0967ac5fddaabf68c8db6c06-Low-Level-API-Details-(Examples)">
                  <mxGeometry relative="1" as="geometry"/>
                </mxCell>
                <mxCell id="edge-L_accountsViews_accountsSerializers_3_5c193fed0967ac5fddaabf68c8db6c06_section_section-diagram-5c193fed0967ac5fddaabf68c8db6c06-Low-Level-API-Details-(Examples)_label" value="uses" style="edgeLabel;html=1;align=center;verticalAlign=middle;resizable=0;points=[];" vertex="1" connectable="0" parent="edge-L_accountsViews_accountsSerializers_3_5c193fed0967ac5fddaabf68c8db6c06_section_section-diagram-5c193fed0967ac5fddaabf68c8db6c06-Low-Level-API-Details-(Examples)">
                  <mxGeometry x="-0.2" y="10" relative="1" as="geometry">
                    <mxPoint as="offset"/>
                  </mxGeometry>
                </mxCell>
<mxCell id="edge-L_authViews_accountsSerializers_4_5c193fed0967ac5fddaabf68c8db6c06_section_section-diagram-5c193fed0967ac5fddaabf68c8db6c06-Low-Level-API-Details-(Examples)" style="edgeStyle=orthogonalEdgeStyle;rounded=1;orthogonalLoop=1;jettySize=auto;html=1;strokeColor=#808080;strokeWidth=2;jumpStyle=arc;jumpSize=10;spacing=15;labelBackgroundColor=white;labelBorderColor=none" edge="1" parent="1" source="authViews_5c193fed0967ac5fddaabf68c8db6c06_section_section-diagram-5c193fed0967ac5fddaabf68c8db6c06-Low-Level-API-Details-(Examples)" target="accountsSerializers_5c193fed0967ac5fddaabf68c8db6c06_section_section-diagram-5c193fed0967ac5fddaabf68c8db6c06-Low-Level-API-Details-(Examples)">
                  <mxGeometry relative="1" as="geometry"/>
                </mxCell>
                <mxCell id="edge-L_authViews_accountsSerializers_4_5c193fed0967ac5fddaabf68c8db6c06_section_section-diagram-5c193fed0967ac5fddaabf68c8db6c06-Low-Level-API-Details-(Examples)_label" value="interacts with" style="edgeLabel;html=1;align=center;verticalAlign=middle;resizable=0;points=[];" vertex="1" connectable="0" parent="edge-L_authViews_accountsSerializers_4_5c193fed0967ac5fddaabf68c8db6c06_section_section-diagram-5c193fed0967ac5fddaabf68c8db6c06-Low-Level-API-Details-(Examples)">
                  <mxGeometry x="-0.2" y="10" relative="1" as="geometry">
                    <mxPoint as="offset"/>
                  </mxGeometry>
                </mxCell>
<mxCell id="edge-L_accountsViews_authSerializers_5_5c193fed0967ac5fddaabf68c8db6c06_section_section-diagram-5c193fed0967ac5fddaabf68c8db6c06-Low-Level-API-Details-(Examples)" style="edgeStyle=orthogonalEdgeStyle;rounded=1;orthogonalLoop=1;jettySize=auto;html=1;strokeColor=#808080;strokeWidth=2;jumpStyle=arc;jumpSize=10;spacing=15;labelBackgroundColor=white;labelBorderColor=none" edge="1" parent="1" source="accountsViews_5c193fed0967ac5fddaabf68c8db6c06_section_section-diagram-5c193fed0967ac5fddaabf68c8db6c06-Low-Level-API-Details-(Examples)" target="authSerializers_5c193fed0967ac5fddaabf68c8db6c06_section_section-diagram-5c193fed0967ac5fddaabf68c8db6c06-Low-Level-API-Details-(Examples)">
                  <mxGeometry relative="1" as="geometry"/>
                </mxCell>
                <mxCell id="edge-L_accountsViews_authSerializers_5_5c193fed0967ac5fddaabf68c8db6c06_section_section-diagram-5c193fed0967ac5fddaabf68c8db6c06-Low-Level-API-Details-(Examples)_label" value="interacts with" style="edgeLabel;html=1;align=center;verticalAlign=middle;resizable=0;points=[];" vertex="1" connectable="0" parent="edge-L_accountsViews_authSerializers_5_5c193fed0967ac5fddaabf68c8db6c06_section_section-diagram-5c193fed0967ac5fddaabf68c8db6c06-Low-Level-API-Details-(Examples)">
                  <mxGeometry x="-0.2" y="10" relative="1" as="geometry">
                    <mxPoint as="offset"/>
                  </mxGeometry>
                </mxCell>
<mxCell id="edge-report-section-5c193fed0967ac5fddaabf68c8db6c06-5-to-section-diagram-5c193fed0967ac5fddaabf68c8db6c06-Low-Level-API-Details-(Examples)-wrapper" style="edgeStyle=orthogonalEdgeStyle;rounded=1;orthogonalLoop=1;jettySize=auto;html=1;strokeColor=#808080;strokeWidth=2;jumpStyle=arc;jumpSize=10;spacing=15;labelBackgroundColor=white;labelBorderColor=none" edge="1" parent="1" source="report-section-5c193fed0967ac5fddaabf68c8db6c06-5" target="section-diagram-5c193fed0967ac5fddaabf68c8db6c06-Low-Level-API-Details-(Examples)-wrapper">
                  <mxGeometry relative="1" as="geometry"/>
                </mxCell>
                <mxCell id="edge-report-section-5c193fed0967ac5fddaabf68c8db6c06-5-to-section-diagram-5c193fed0967ac5fddaabf68c8db6c06-Low-Level-API-Details-(Examples)-wrapper_label" value="Diagram" style="edgeLabel;html=1;align=center;verticalAlign=middle;resizable=0;points=[];" vertex="1" connectable="0" parent="edge-report-section-5c193fed0967ac5fddaabf68c8db6c06-5-to-section-diagram-5c193fed0967ac5fddaabf68c8db6c06-Low-Level-API-Details-(Examples)-wrapper">
                  <mxGeometry x="-0.2" y="10" relative="1" as="geometry">
                    <mxPoint as="offset"/>
                  </mxGeometry>
                </mxCell>
<mxCell id="edge-search-result-5c193fed0967ac5fddaabf68c8db6c06-to-report-section-5c193fed0967ac5fddaabf68c8db6c06-0" style="edgeStyle=orthogonalEdgeStyle;rounded=1;orthogonalLoop=1;jettySize=auto;html=1;strokeColor=#808080;strokeWidth=2;jumpStyle=arc;jumpSize=10;spacing=15;labelBackgroundColor=white;labelBorderColor=none" edge="1" parent="1" source="search-result-5c193fed0967ac5fddaabf68c8db6c06" target="report-section-5c193fed0967ac5fddaabf68c8db6c06-0">
                  <mxGeometry relative="1" as="geometry"/>
                </mxCell>
<mxCell id="edge-report-section-5c193fed0967ac5fddaabf68c8db6c06-0-to-report-section-5c193fed0967ac5fddaabf68c8db6c06-1" style="edgeStyle=orthogonalEdgeStyle;rounded=1;orthogonalLoop=1;jettySize=auto;html=1;strokeColor=#808080;strokeWidth=2;jumpStyle=arc;jumpSize=10;spacing=15;labelBackgroundColor=white;labelBorderColor=none" edge="1" parent="1" source="report-section-5c193fed0967ac5fddaabf68c8db6c06-0" target="report-section-5c193fed0967ac5fddaabf68c8db6c06-1">
                  <mxGeometry relative="1" as="geometry"/>
                </mxCell>
<mxCell id="edge-report-section-5c193fed0967ac5fddaabf68c8db6c06-0-to-report-section-5c193fed0967ac5fddaabf68c8db6c06-2" style="edgeStyle=orthogonalEdgeStyle;rounded=1;orthogonalLoop=1;jettySize=auto;html=1;strokeColor=#808080;strokeWidth=2;jumpStyle=arc;jumpSize=10;spacing=15;labelBackgroundColor=white;labelBorderColor=none" edge="1" parent="1" source="report-section-5c193fed0967ac5fddaabf68c8db6c06-0" target="report-section-5c193fed0967ac5fddaabf68c8db6c06-2">
                  <mxGeometry relative="1" as="geometry"/>
                </mxCell>
<mxCell id="edge-report-section-5c193fed0967ac5fddaabf68c8db6c06-0-to-report-section-5c193fed0967ac5fddaabf68c8db6c06-5" style="edgeStyle=orthogonalEdgeStyle;rounded=1;orthogonalLoop=1;jettySize=auto;html=1;strokeColor=#808080;strokeWidth=2;jumpStyle=arc;jumpSize=10;spacing=15;labelBackgroundColor=white;labelBorderColor=none" edge="1" parent="1" source="report-section-5c193fed0967ac5fddaabf68c8db6c06-0" target="report-section-5c193fed0967ac5fddaabf68c8db6c06-5">
                  <mxGeometry relative="1" as="geometry"/>
                </mxCell>
            </root>
          </mxGraphModel>
        </diagram>
      </mxfile>